<svg width="571" height="662" viewBox="0 0 571 662" fill="none" xmlns="http://www.w3.org/2000/svg">
<path d="M675.72 262.388H472.253C464.305 262.388 459.344 253.913 463.323 247.133L565.142 73.7022C567.991 68.8358 566.303 62.6177 561.374 59.8102L458.606 1.37241C453.677 -1.4351 447.365 0.228612 444.516 5.09496L342.877 178.537C338.908 185.316 328.977 185.316 325.008 178.537L223.369 5.08456C220.52 0.228613 214.208 -1.4455 209.279 1.36201L106.511 59.8206C101.582 62.6281 99.8831 68.8462 102.733 73.7022L204.372 247.144C208.34 253.923 203.379 262.388 195.443 262.388H10.3292C2.4028 262.388 -2.55776 270.821 1.37903 277.6L69.286 394.507C71.1224 397.668 74.542 399.623 78.2361 399.623H195.432C203.369 399.623 208.34 408.087 204.361 414.867L145.425 515.438C143.589 518.568 143.578 522.425 145.404 525.566L213.311 642.462C217.258 649.262 227.211 649.283 231.19 642.504L324.765 483.099C328.744 476.33 338.655 476.33 342.624 483.099L444.484 656.915C447.334 661.771 453.645 663.445 458.574 660.638L561.342 602.179C566.271 599.372 567.97 593.154 565.121 588.298L463.482 414.856C459.513 408.077 464.474 399.612 472.411 399.612H675.688C681.388 399.612 686 395.058 686 389.453V272.547C686 266.932 681.377 262.388 675.688 262.388H675.72Z" fill="#B4D43D"/>
</svg>
